# File generated by ImageToStl.com - Free Image and 3D model conversion tools

mtllib rabbit.mtl

# Plane001_0
o obj1
v 40.5335884 66.78632736 31.39107323
v 43.1577072 75.63036728 81.04890823
v 38.58719252 51.09851456 70.32047653
v 41.10770033 46.55612946 39.16207647
v 39.95169829 20.48677063 69.53467178
v 41.08198164 20.31140137 45.85684633
v 17.09325217 72.78443909 79.91960144
v 22.44650076 51.05736542 68.10299301
v 22.5708351 21.38697052 70.95900726
v 9.54635142 51.97278595 43.09567308
v 14.36633395 45.6007843 46.51311684
v 15.74161719 20.27522278 48.47288227
v 23.57062529 8.70410156 90.73550797
v 39.67881774 7.67663574 89.44070435
v 39.95169829 20.48677063 69.53467178
v 22.5708351 21.38697052 70.95900726
v 15.74161719 20.27522278 48.47288227
v 17.02765082 -2.38990784 54.09005928
v 12.28631209 -2.38990784 72.79125595
v 41.08198164 20.31140137 45.85684633
v 42.86096953 -2.38990784 47.75090313
v 49.39191435 -2.38990784 67.89256477
v 20.85911749 -2.38990784 87.90499115
v 44.82104109 -2.38990784 86.3932991
v 61.74768446 25.81008911 -30.66138077
v 55.76285933 22.7835083 -69.57892227
v 60.98677443 48.52117538 -72.55820084
v 69.47756957 52.82444 -25.90971756
v 73.24503325 -2.38990784 -29.04378128
v 61.81484221 -2.38990784 -67.27717972
v 55.76285933 22.7835083 -69.57892227
v 61.74768446 25.81008911 -30.66138077
v 32.9734764 36.71164703 -79.49913406
v 37.75640868 19.76976776 -69.97410202
v 30.6947975 19.88948822 -30.01910019
v 30.81554602 31.50933075 -31.11577988
v 38.63267516 -2.38990784 -67.55889511
v 37.75640868 19.76976776 -69.97410202
v 28.61289214 -2.38990784 -28.72544479
v 30.6947975 19.88948822 -30.01910019
v 38.40644454 14.4805603 15.83255577
v 62.48743819 14.30691528 12.40271378
v 69.08478545 -2.38990784 14.98683739
v 36.03304289 -2.38990784 14.7630825
v 47.47559355 93.08701324 36.33607721
v 41.34187315 103.31745291 96.46776962
v 31.16936682 41.41544342 5.60118103
v 51.36328887 60.21846771 2.28144073
v 60.95779799 89.10365295 -3.30053329
v 71.84838866 85.28543854 -27.25998306
v 58.49431609 79.57689285 -76.91982651
v 35.22080611 62.58145905 -92.76434708
v 55.55883406 138.4499054 35.29490328
v 45.94441603 139.70118523 94.62487793
v 40.20029067 177.10900116 33.12352991
v 34.00941084 180.03620911 91.06596756
v 42.44844054 160.08086395 93.21104431
v 50.41921614 158.85531998 34.19987059
v 0.00092033 193.77141571 29.67118073
v 0.00092033 193.37747192 88.90761185
v 55.03923033 134.90810013 -7.25375366
v 47.23473357 155.2690773 -10.51818085
v 33.70432662 173.29924011 -12.73239899
v 0.00092033 184.61321259 -15.9940834
v 52.20796202 131.26689339 -32.66700363
v 44.13673399 149.64038467 -35.04851913
v 31.06862639 165.61536407 -36.08759689
v 0.00092033 175.05055237 -40.09012222
v 46.6414337 108.68471408 -73.24209976
v 33.97686385 123.50345135 -79.81523514
v 24.61538313 133.48286629 -81.49474716
v 0.00092033 142.23971176 -84.10583878
v 31.57860945 81.56573296 -98.60333633
v 24.4706478 97.902174 -100.93060684
v 13.43441962 95.20820522 -107.35748672
v 0.00092033 96.80616379 -109.0573616
v 0.00092033 72.3388443 78.98654938
v 0.00092033 52.35257339 44.66116524
v 9.54635142 51.97278595 43.09567308
v 17.09325217 72.78443909 79.91960144
v 0.00092033 31.75247955 7.18473244
v 31.16936682 41.41544342 5.60118103
v 0.00092033 23.32888794 -29.82593918
v 30.81554602 31.50933075 -31.11577988
v 0.00092033 18.92301941 -70.64625168
v 32.9734764 36.71164703 -79.49913406
v 0.00092033 20.40087128 -101.64801407
v 18.95577429 29.37187195 -98.31026077
v 0.00092033 73.62709045 -133.17674637
v 9.72754477 71.01968002 -132.01916885
v 13.0180435 56.84625244 -135.9576149
v 0.00092033 60.35397339 -140.70228958
v 18.95577429 29.37187195 -98.31026077
v 21.76906966 55.09997559 -112.41542435
v 11.66613577 70.6594429 -111.86078262
v 0.00092033 72.75563812 -115.18753433
v 0.00092033 60.35397339 -140.70228958
v 13.0180435 56.84625244 -135.9576149
v 10.82271575 35.62941742 -124.51701736
v 0.00092033 32.05820465 -124.07811356
v 10.82271575 35.62941742 -124.51701736
v 16.93264197 100.54741669 110.89056015
v 16.93264197 100.54741669 110.89056015
v 0.00092033 98.8580246 116.7617836
v 21.74698638 126.63977814 129.65358353
v 21.74698638 126.63977814 129.65358353
v 0.00092033 122.0419302 137.70723343
v 18.88342284 150.05575943 145.38954544
v 0.00092033 146.34181213 148.21912003
v 45.94441603 139.70118523 94.62487793
v 32.14852141 160.1490097 123.38788986
v 34.00941084 180.03620911 91.06596756
v 29.56944464 183.42193604 110.62063217
v 32.76384734 171.83057785 117.49914169
v 42.44844054 160.08086395 93.21104431
v 0.00092033 193.37747192 88.90761185
v 0.00092033 200.11641693 103.16035843
v 18.88342284 150.05575943 145.38954544
v 20.93362807 153.79129028 162.77238083
v 0.00092033 151.82202911 166.64158249
v 0.00092033 146.34181213 148.21912003
v 32.14852141 160.1490097 123.38788986
v 35.50579451 169.77270889 140.9153862
v 32.76384734 171.83057785 117.49914169
v 37.47139357 184.59389496 131.06489182
v 29.56944464 183.42193604 110.62063217
v 0.00092033 200.11641693 103.16035843
v 0.00092033 216.67845154 113.4838829
v 33.30857085 200.70082092 122.58994675
v -18.4620228 179.66082764 195.82299423
v -20.5482483 161.68936539 180.96212387
v 0.00091551 156.12897873 187.31411362
v 0.00091551 172.57429504 203.37746811
v 38.06562804 182.252388 157.14686203
v 20.55008696 161.68936539 180.96212387
v 22.75473975 268.93881226 140.61346054
v 13.16189669 233.17372131 153.3923378
v 33.84145354 217.65248108 136.8515358
v 45.34112166 247.09078979 111.00784683
v 47.1070938 288.46815491 118.46889114
v 54.9777069 283.84043884 111.62692642
v 13.16189669 233.17372131 153.3923378
v 22.75473975 268.93881226 140.61346054
v 14.37110804 268.90457153 129.46279526
v 0.00092033 233.02029419 131.06667709
v 47.1070938 288.46815491 118.46889114
v 39.02230452 290.04598999 110.88067245
v 40.15822218 253.01293945 101.72507858
v 25.96459197 216.36585999 122.85374832
v 49.19376753 284.10250854 99.5435257
v 54.9777069 283.84043884 111.62692642
v 45.34112166 247.09078979 111.00784683
v 33.84145354 217.65248108 136.8515358
v 36.80815123 197.58277893 151.36584091
v 35.10253905 210.2936554 140.7158165
v 14.53581332 228.46134186 160.79678726
v 0.00092033 230.89082336 161.38520432
v 19.60435866 212.96702576 177.62134933
v 0.00092033 215.01450348 182.66080856
v 21.75877951 198.38365936 188.83218002
v 18.56027411 181.29736328 195.99927902
v 0.00092033 202.83190918 195.12015915
v 0.00091551 178.40375519 207.30732346
v 18.56027411 181.29736328 195.99927902
v 18.46385382 179.66082764 195.82299423
v -20.9317875 153.79129028 162.77238083
v 0.00091551 156.12897873 187.31411362
v -40.53174592 66.78632736 31.39107323
v -41.10585786 46.55612946 39.16207647
v -38.58535005 51.09851456 70.32047653
v -43.15586473 75.63036728 81.04890823
v -39.94985582 20.48677063 69.53467178
v -41.08013917 20.31140137 45.85684633
v -17.0914116 72.78443909 79.91960144
v -22.4446602 51.05736542 68.10299301
v -22.56899454 21.38697052 70.95900726
v -9.54451086 51.97278595 43.09567308
v -14.36449338 45.6007843 46.51311684
v -15.73977663 20.27522278 48.47288227
v -23.56878473 8.70410156 90.73550797
v -22.56899454 21.38697052 70.95900726
v -39.94985582 20.48677063 69.53467178
v -39.67697526 7.67663574 89.44070435
v -12.28447153 -2.38990784 72.79125595
v -17.02581216 -2.38990784 54.09005928
v -15.73977663 20.27522278 48.47288227
v -42.85912706 -2.38990784 47.75090313
v -41.08013917 20.31140137 45.85684633
v -49.39007188 -2.38990784 67.89256477
v -20.85727693 -2.38990784 87.90499115
v -44.81919862 -2.38990784 86.3932991
v -61.74584199 25.81008911 -30.66138077
v -69.47572328 52.82444 -25.90971756
v -60.98492815 48.52117538 -72.55820084
v -55.76101686 22.7835083 -69.57892227
v -73.24319459 -2.38990784 -29.04378128
v -61.74584199 25.81008911 -30.66138077
v -55.76101686 22.7835083 -69.57892227
v -61.81299974 -2.38990784 -67.27717972
v -32.97163011 36.71164703 -79.49913406
v -37.75456621 19.76976776 -69.97410202
v -30.69295503 19.88948822 -30.01910019
v -30.81370164 31.50933075 -31.11577988
v -37.75456621 19.76976776 -69.97410202
v -38.63083269 -2.38990784 -67.55889511
v -30.69295503 19.88948822 -30.01910019
v -28.61104776 -2.38990784 -28.72544479
v -38.40460206 14.4805603 15.83255577
v -62.48559572 14.30691528 12.40271378
v -69.08293916 -2.38990784 14.98683739
v -36.03120042 -2.38990784 14.7630825
v -47.47375108 93.08701324 36.33607721
v -41.34002687 103.31745291 96.46776962
v -31.16752435 41.41544342 5.60118103
v -51.36144258 60.21846771 2.28144073
v -60.95595552 89.10365295 -3.30053329
v -71.84655 85.28543854 -27.25998306
v -58.49247362 79.57689285 -76.91982651
v -35.21896364 62.58145905 -92.76434708
v -55.55699159 138.4499054 35.29490328
v -45.94257356 139.70118523 94.62487793
v -40.1984482 177.10900116 33.12352991
v -50.41737367 158.85531998 34.19987059
v -42.44659807 160.08086395 93.21104431
v -34.00756837 180.03620911 91.06596756
v -55.03738786 134.90810013 -7.25375366
v -47.2328911 155.2690773 -10.51818085
v -33.70248414 173.29924011 -12.73239899
v -52.20611955 131.26689339 -32.66700363
v -44.13489152 149.64038467 -35.04851913
v -31.06678392 165.61536407 -36.08759689
v -46.63959123 108.68471408 -73.24209976
v -33.97502138 123.50345135 -79.81523514
v -24.61354448 133.48286629 -81.49474716
v -31.57676698 81.56573296 -98.60333633
v -24.46880723 97.902174 -100.93060684
v -13.43258001 95.20820522 -107.35748672
v -17.0914116 72.78443909 79.91960144
v -9.54451086 51.97278595 43.09567308
v -31.16752435 41.41544342 5.60118103
v -30.81370164 31.50933075 -31.11577988
v -32.97163011 36.71164703 -79.49913406
v -18.95393564 29.37187195 -98.31026077
v -13.01620389 56.84625244 -135.9576149
v -9.72570516 71.01968002 -132.01916885
v -18.95393564 29.37187195 -98.31026077
v -21.76722909 55.09997559 -112.41542435
v -11.66429616 70.6594429 -111.86078262
v -10.82087518 35.62941742 -124.51701736
v -13.01620389 56.84625244 -135.9576149
v -10.82087518 35.62941742 -124.51701736
v -16.93080141 100.54741669 110.89056015
v -16.93080141 100.54741669 110.89056015
v -21.74514581 126.63977814 129.65358353
v -21.74514581 126.63977814 129.65358353
v -18.88158227 150.05575943 145.38954544
v -45.94257356 139.70118523 94.62487793
v -32.14667512 160.1490097 123.38788986
v -34.00756837 180.03620911 91.06596756
v -42.44659807 160.08086395 93.21104431
v -32.76200487 171.83057785 117.49914169
v -29.56760217 183.42193604 110.62063217
v -18.88158227 150.05575943 145.38954544
v -32.14667512 160.1490097 123.38788986
v -35.50395204 169.77270889 140.9153862
v -37.4695511 184.59389496 131.06489182
v -32.76200487 171.83057785 117.49914169
v -29.56760217 183.42193604 110.62063217
v -33.30672456 200.70082092 122.58994675
v 0.00091551 156.12897873 187.31411362
v -38.06378557 182.252388 157.14686203
v -22.75289918 268.93881226 140.61346054
v -45.33927919 247.09078979 111.00784683
v -33.83961107 217.65248108 136.8515358
v -13.16005708 233.17372131 153.3923378
v -47.10525133 288.46815491 118.46889114
v -54.97586442 283.84043884 111.62692642
v -13.16005708 233.17372131 153.3923378
v -14.36926843 268.90457153 129.46279526
v -22.75289918 268.93881226 140.61346054
v -39.02046205 290.04598999 110.88067245
v -47.10525133 288.46815491 118.46889114
v -25.9627495 216.36585999 122.85374832
v -40.15637971 253.01293945 101.72507858
v -49.19192506 284.10250854 99.5435257
v -54.97586442 283.84043884 111.62692642
v -45.33927919 247.09078979 111.00784683
v -33.83961107 217.65248108 136.8515358
v -36.80630876 197.58277893 151.36584091
v -35.10069658 210.2936554 140.7158165
v -14.53397371 228.46134186 160.79678726
v -19.6025181 212.96702576 177.62134933
v -21.75693895 198.38365936 188.83218002
v -18.55844308 181.29736328 195.99927902
v 0.00091551 178.40375519 207.30732346
v 0.00091551 172.57429504 203.37746811
v 18.46385382 179.66082764 195.82299423
v 18.56027411 181.29736328 195.99927902
v 0.00091551 178.40375519 207.30732346
v -18.55844308 181.29736328 195.99927902
v -18.4620228 179.66082764 195.82299423
v 0.00091551 156.12897873 187.31411362
v 31.17213057 204.14559937 166.15380478
v 29.56828307 200.59431458 164.01509476
v 30.06154059 208.07562256 158.08919907
v 31.3772621 208.43996429 162.84350204
v 26.6333351 199.61451721 162.63455582
v 27.12857817 207.12860107 156.68305588
v 29.26364516 203.71767426 171.20501328
v 26.15379141 200.97853088 171.88659286
v 23.20156096 200.00982666 170.53477097
v 27.70104407 206.12218475 173.4080162
v 23.67831038 204.82164764 175.17791367
v 20.71646308 203.86896515 173.83471298
v 23.52249907 209.80594635 171.50172043
v 20.56032561 208.87056732 170.14843369
v 27.57972525 209.36412811 170.95907211
v 25.85631369 213.04718018 163.47214127
v 22.90414237 212.12516785 162.08908463
v 29.05198477 211.22396088 165.84823227
v -31.17212869 204.14559937 166.15380478
v -31.37726213 208.43996429 162.84350204
v -30.06153871 208.07562256 158.08919907
v -29.56828119 200.59431458 164.01509476
v -27.12857629 207.12860107 156.68305588
v -26.63333322 199.61451721 162.63455582
v -29.26364519 203.71767426 171.20501328
v -26.15378953 200.97853088 171.88659286
v -23.20155908 200.00982666 170.53477097
v -27.7010441 206.12218475 173.4080162
v -23.67831041 204.82164764 175.17791367
v -20.7164631 203.86896515 173.83471298
v -23.5224991 209.80594635 171.50172043
v -20.56032564 208.87056732 170.14843369
v -27.57972337 209.36412811 170.95907211
v -25.85631181 213.04718018 163.47214127
v -22.90414049 212.12516785 162.08908463
v -29.05198289 211.22396088 165.84823227
vn 0.99587 -0.08981 0.0136
vn 0.99751 0.03012 0.06382
vn -0.04122 -0.4383 0.89788
vn -0.02278 0.03375 0.99917
vn -0.81434 -0.41585 0.40486
vn -0.94737 0.0022 0.32013
vn -0.18202 -0.41235 -0.89266
vn -0.18224 -0.16737 -0.9689
vn 0.09187 0.83855 0.53702
vn -0.97942 0.19688 0.04433
vn -0.16969 -0.17212 -0.97035
vn 0.96418 0.23667 -0.11978
vn -0.87878 0.31731 0.35645
vn 0.0608 -0.26066 0.96351
vn 0.90068 0.36518 0.23539
vn 0 -1 0
vn 0 -1 0
vn 0.96227 -0.23149 -0.14296
vn 0.93107 0.28987 -0.22154
vn 0.23722 -0.27539 -0.9316
vn -0.97306 -0.2009 -0.11311
vn -0.03083 -0.08793 0.99565
vn 0.02336 -0.09575 -0.99513
vn -0.97726 0.00883 -0.21188
vn -0.0875 0.97706 0.19416
vn 0.92122 0.37935 0.08628
vn -0.97857 0.11235 0.17255
vn 0.05611 0.05205 0.99707
vn 0 -1 0
vn 0.99219 -0.11362 0.05146
vn 0.57825 -0.6767 0.45574
vn 0.51993 -0.77923 0.34996
vn 0.89579 -0.2643 0.35736
vn 0.85824 -0.11077 0.50115
vn 0.97547 -0.01786 -0.2194
vn 0.50786 -0.25281 -0.82351
vn 0.97875 -0.14684 0.14314
vn 0.89167 0.44319 0.09223
vn 0.37486 0.92708 -0.00024
vn 0.98747 -0.01484 0.15711
vn 0.95309 0.29571 -0.06461
vn 0.36207 0.91902 -0.15592
vn 0.95402 0.27727 0.11384
vn 0.91977 0.35155 -0.17445
vn 0.32128 0.88415 -0.3392
vn 0.88245 0.36323 -0.29891
vn 0.82536 0.41125 -0.38686
vn 0.31528 0.7569 -0.57245
vn 0.62597 0.16746 -0.76166
vn 0.70315 0.25683 -0.66304
vn 0.22726 0.48298 -0.84563
vn 0.01393 -0.86805 0.49628
vn 0.2322 -0.87264 0.42963
vn 0.27905 -0.93222 0.23042
vn 0.37719 -0.92614 0.00086
vn 0.45597 -0.88968 -0.02362
vn 0.32912 0.39727 -0.85665
vn 0.82417 -0.32636 -0.46286
vn 0.21053 0.97737 0.02086
vn 0.22071 0.2008 -0.95445
vn 0.15598 -0.4923 -0.85633
vn 0.39062 -0.84071 -0.37499
vn 0.89276 -0.28509 -0.34886
vn 0.88281 0.42719 -0.19535
vn 0.65275 0.14601 -0.74337
vn 0.49823 0.11084 -0.85993
vn 0.26428 -0.61329 0.74433
vn 0.13788 -0.77718 0.61399
vn 0.72798 -0.2793 0.62613
vn 0.35465 -0.60744 0.7108
vn 0.31541 -0.44277 0.83933
vn 0.85398 -0.17335 0.49059
vn 0.91006 0.38177 0.16139
vn 0.44322 0.87307 -0.20326
vn 0.1761 -0.95569 0.2359
vn 0.77227 -0.62402 0.11917
vn 0.97655 -0.17199 -0.12946
vn 0.44163 0.45903 -0.77088
vn -0.43393 -0.58746 0.68308
vn 0.85391 -0.46971 0.22409
vn 0.77111 0.12084 0.62512
vn 0.69945 -0.15563 0.69753
vn -0.78438 0.36326 0.50278
vn -0.37011 0.84104 0.39455
vn -0.5813 -0.02597 -0.81327
vn -0.68196 0.15575 -0.71461
vn 0.36408 0.91553 -0.17105
vn 0.83338 -0.24084 -0.49747
vn 0.64624 -0.59282 -0.48056
vn 0.29625 0.51609 -0.80367
vn 0.93085 0.04635 -0.36244
vn 0.93483 0.15659 0.31872
vn 0.46119 0.42392 -0.77949
vn 0.68842 0.54477 -0.47886
vn 0.77347 0.58069 -0.25405
vn 0.83476 0.53434 -0.13285
vn 0.96701 0.21331 0.13923
vn 0.99898 -0.03698 -0.02608
vn 0.98578 0.13057 -0.10574
vn 0.89045 0.27625 -0.36163
vn 0.76371 0.52168 0.38025
vn -0.06081 0.98174 0.18027
vn 0.20088 0.7692 0.60661
vn 0.81401 0.49366 0.30608
vn 0.88739 0.30004 0.35003
vn 0.38411 0.36565 0.8478
vn 0.88937 -0.12369 0.44014
vn 0.29431 0.6463 0.70404
vn -0.24018 -0.92545 0.29302
vn -0.99587 -0.08981 0.0136
vn -0.99751 0.03012 0.06382
vn 0.04122 -0.4383 0.89789
vn 0.02278 0.03375 0.99917
vn 0.81434 -0.41585 0.40486
vn 0.94737 0.0022 0.32013
vn 0.18202 -0.41235 -0.89266
vn 0.18224 -0.16737 -0.9689
vn -0.09187 0.83855 0.53702
vn 0.97942 0.19688 0.04433
vn 0.16969 -0.17212 -0.97035
vn -0.96418 0.23667 -0.11978
vn 0.87878 0.31731 0.35645
vn -0.0608 -0.26066 0.96351
vn -0.90068 0.36518 0.23539
vn -0 -1 0
vn -0 -1 0
vn -0.96227 -0.23149 -0.14296
vn -0.93107 0.28987 -0.22154
vn -0.23722 -0.27539 -0.9316
vn 0.97306 -0.2009 -0.11311
vn 0.03083 -0.08793 0.99565
vn -0.02336 -0.09575 -0.99513
vn 0.97726 0.00883 -0.21188
vn 0.0875 0.97706 0.19416
vn -0.92122 0.37935 0.08628
vn 0.97857 0.11235 0.17255
vn -0.05611 0.05205 0.99707
vn -0 -1 0
vn -0 -1 0
vn -0.99219 -0.11362 0.05146
vn -0.57825 -0.6767 0.45574
vn -0.51993 -0.77923 0.34996
vn -0.89579 -0.2643 0.35736
vn -0.85824 -0.11077 0.50115
vn -0.97547 -0.01786 -0.2194
vn -0.50786 -0.25281 -0.82351
vn -0.97875 -0.14684 0.14314
vn -0.89167 0.44319 0.09223
vn -0.37486 0.92708 -0.00024
vn -0.98747 -0.01484 0.15711
vn -0.95309 0.29572 -0.06461
vn -0.36207 0.91902 -0.15592
vn -0.95402 0.27727 0.11384
vn -0.91977 0.35155 -0.17445
vn -0.32128 0.88415 -0.3392
vn -0.88245 0.36323 -0.29891
vn -0.82536 0.41125 -0.38686
vn -0.31528 0.7569 -0.57245
vn -0.62597 0.16746 -0.76166
vn -0.70315 0.25683 -0.66304
vn -0.22726 0.48298 -0.84563
vn -0.01393 -0.86805 0.49628
vn -0.2322 -0.87264 0.42963
vn -0.27905 -0.93222 0.23042
vn -0.37719 -0.92614 0.00086
vn -0.45597 -0.88968 -0.02362
vn -0.32912 0.39727 -0.85665
vn -0.82417 -0.32636 -0.46286
vn -0.21053 0.97737 0.02086
vn -0.22071 0.2008 -0.95445
vn -0.15598 -0.4923 -0.85633
vn -0.39062 -0.84071 -0.37499
vn -0.89276 -0.28509 -0.34886
vn -0.88281 0.42719 -0.19535
vn -0.65275 0.14601 -0.74337
vn -0.49823 0.11084 -0.85993
vn -0.26428 -0.61329 0.74433
vn -0.13788 -0.77718 0.61399
vn -0.72798 -0.2793 0.62613
vn -0.35465 -0.60744 0.7108
vn -0.31541 -0.44277 0.83933
vn -0.85398 -0.17335 0.49059
vn -0.91006 0.38177 0.16139
vn -0.44322 0.87307 -0.20326
vn -0.1761 -0.95569 0.2359
vn -0.77227 -0.62402 0.11917
vn -0.97655 -0.17199 -0.12947
vn -0.44163 0.45903 -0.77088
vn 0.24018 -0.92545 0.29302
vn -0.85391 -0.46971 0.22409
vn -0.77111 0.12084 0.62512
vn -0.69945 -0.15563 0.69753
vn 0.78438 0.36326 0.50278
vn 0.37011 0.84104 0.39455
vn 0.5813 -0.02597 -0.81327
vn 0.68196 0.15575 -0.71461
vn -0.36408 0.91553 -0.17105
vn -0.83338 -0.24084 -0.49747
vn -0.64624 -0.59282 -0.48056
vn -0.29625 0.51609 -0.80367
vn -0.93085 0.04635 -0.36244
vn -0.93483 0.15659 0.31872
vn -0.46119 0.42392 -0.77949
vn -0.68842 0.54477 -0.47886
vn -0.77347 0.58069 -0.25405
vn -0.83476 0.53434 -0.13285
vn -0.96701 0.21331 0.13923
vn -0.99898 -0.03698 -0.02608
vn -0.98578 0.13057 -0.10574
vn -0.89045 0.27625 -0.36163
vn -0.76371 0.52168 0.38025
vn 0.06081 0.98174 0.18027
vn -0.20088 0.7692 0.60661
vn -0.81401 0.49366 0.30608
vn -0.88739 0.30004 0.35003
vn -0.38411 0.36565 0.84779
vn -0.88937 -0.12369 0.44014
vn -0.29431 0.6463 0.70404
vn 0.49929 -0.42248 0.75645
vn -0.49929 -0.42248 0.75645
vn 0.43393 -0.58746 0.68308
vn 0.93409 -0.25299 -0.25192
vn 0.49833 -0.55826 -0.66334
vn 0.72936 -0.61565 0.29835
vn 0.2454 -0.95714 0.15383
vn 0.48546 -0.37906 0.78781
vn -0.10591 -0.68502 0.72078
vn -0.4857 0.50885 0.71075
vn 0.16275 0.59278 0.78875
vn -0.39162 0.8871 0.24431
vn 0.17929 0.89849 0.40072
vn 0.06657 0.75825 -0.64855
vn 0.60813 0.76001 -0.22926
vn 0.88631 0.28094 0.36813
vn -0.93409 -0.25299 -0.25192
vn -0.49833 -0.55826 -0.66334
vn -0.72936 -0.61565 0.29835
vn -0.2454 -0.95714 0.15383
vn -0.48546 -0.37906 0.78781
vn 0.10591 -0.68502 0.72078
vn 0.4857 0.50885 0.71075
vn -0.16275 0.59278 0.78875
vn 0.39162 0.8871 0.2443
vn -0.17929 0.89849 0.40072
vn -0.06657 0.75825 -0.64855
vn -0.60813 0.76001 -0.22926
vn -0.88631 0.28094 0.36813
vt 0.11532 0.83852
vt 0.11779 0.83898
vt 0.11689 0.83947
vt 0.11601 0.83945
vt 0.11629 0.83976
vt 0.11632 0.83976
vt 0.11806 0.84053
vt 0.11681 0.84004
vt 0.11629 0.83971
vt 0.11549 0.84074
vt 0.11592 0.84025
vt 0.11633 0.83971
vt 0.16283 0.8386
vt 0.16278 0.83851
vt 0.16507 0.83666
vt 0.16507 0.84084
vt 0.16116 0.84033
vt 0.16279 0.83874
vt 0.16281 0.83866
vt 0.16069 0.8367
vt 0.16262 0.83866
vt 0.1627 0.83858
vt 0.1628 0.83861
vt 0.16276 0.83856
vt 0.11186 0.83681
vt 0.11113 0.8363
vt 0.11138 0.83563
vt 0.11269 0.83664
vt 0.16009 0.8332
vt 0.15971 0.83324
vt 0.1563 0.83173
vt 0.16339 0.8288
vt 0.10993 0.83602
vt 0.1108 0.83659
vt 0.11115 0.83732
vt 0.11105 0.83811
vt 0.15969 0.83352
vt 0.15737 0.83489
vt 0.16015 0.83355
vt 0.16339 0.83665
vt 0.16023 0.8333
vt 0.16022 0.83327
vt 0.1602 0.83328
vt 0.16021 0.8333
vt 0.1162 0.83731
vt 0.11934 0.83824
vt 0.11314 0.83909
vt 0.11378 0.83765
vt 0.11441 0.83633
vt 0.11347 0.83576
vt 0.11193 0.83469
vt 0.11043 0.83437
vt 0.11714 0.83529
vt 0.12009 0.83624
vt 0.11768 0.83352
vt 0.12059 0.83389
vt 0.12039 0.83512
vt 0.11744 0.8344
vt 0.11776 0.83169
vt 0.12085 0.83169
vt 0.11541 0.83463
vt 0.1157 0.83379
vt 0.11593 0.83296
vt 0.11599 0.83169
vt 0.11448 0.83418
vt 0.1148 0.83348
vt 0.11507 0.8328
vt 0.1151 0.83169
vt 0.11272 0.8338
vt 0.11292 0.83305
vt 0.11313 0.83259
vt 0.11328 0.83169
vt 0.11099 0.83347
vt 0.11152 0.83281
vt 0.11117 0.83232
vt 0.11116 0.83168
vt 0.68251 0.25534
vt 0.68685 0.3267
vt 0.66995 0.33053
vt 0.6517 0.25554
vt 0.69136 0.40106
vt 0.63443 0.40131
vt 0.69531 0.46606
vt 0.63889 0.46926
vt 0.69959 0.53649
vt 0.63521 0.55643
vt 0.70272 0.58807
vt 0.66611 0.58797
vt 0.10858 0.83168
vt 0.10857 0.83211
vt 0.10791 0.83263
vt 0.10775 0.83167
vt 0.1085 0.83546
vt 0.1091 0.83366
vt 0.10966 0.83257
vt 0.1096 0.83168
vt 0.70904 0.69217
vt 0.68222 0.68273
vt 0.6851 0.63594
vt 0.70528 0.63025
vt 0.10753 0.83403
vt 0.12051 0.83949
vt 0.6468 0.1811
vt 0.67755 0.17415
vt 0.12203 0.8382
vt 0.63474 0.1236
vt 0.67443 0.1248
vt 0.65193 0.0894
vt 0.67209 0.09165
vt 0.57869 0.08077
vt 0.63052 0.07166
vt 0.61165 0.02411
vt 0.63375 0.04066
vt 0.63026 0.05603
vt 0.59203 0.05203
vt 0.66509 0.00015
vt 0.66739 0.02436
vt 0.12596 0.84004
vt 0.12571 0.84164
vt 0.12423 0.84217
vt 0.12235 0.84026
vt 0.1292 0.84094
vt 0.12774 0.84217
vt 0.12989 0.84263
vt 0.12849 0.8434
vt 0.12989 0.84438
vt 0.12847 0.84681
vt 0.1279 0.84613
vt 0.12858 0.84461
vt 0.12533 0.84391
vt 0.12463 0.84366
vt 0.12503 0.84311
vt 0.12553 0.84352
vt 0.12715 0.84305
vt 0.12575 0.84267
vt 0.15917 0.83576
vt 0.16592 0.83658
vt 0.16592 0.8419
vt 0.15897 0.84324
vt 0.15324 0.83872
vt 0.1529 0.84067
vt 0.12759 0.84523
vt 0.12845 0.84615
vt 0.12869 0.84608
vt 0.12762 0.8457
vt 0.12943 0.84696
vt 0.1298 0.84722
vt 0.12869 0.84644
vt 0.12816 0.84543
vt 0.12941 0.84688
vt 0.12923 0.84686
vt 0.12876 0.84605
vt 0.12801 0.84511
vt 0.12748 0.84382
vt 0.12781 0.84458
vt 0.1273 0.84489
vt 0.12706 0.8451
vt 0.12679 0.84426
vt 0.12644 0.84447
vt 0.12638 0.84384
vt 0.12602 0.84348
vt 0.12609 0.84411
vt 0.12566 0.84366
vt 0.12602 0.84348
vt 0.12595 0.84336
vt 0.12362 0.84356
vt 0.12503 0.84311
vt 0.11533 0.82487
vt 0.11602 0.82394
vt 0.1169 0.82392
vt 0.11779 0.82441
vt 0.11629 0.82365
vt 0.11632 0.82363
vt 0.11806 0.82286
vt 0.11681 0.82335
vt 0.11629 0.82369
vt 0.11551 0.82268
vt 0.11593 0.82315
vt 0.11633 0.82368
vt 0.15845 0.8389
vt 0.16068 0.83666
vt 0.16068 0.84084
vt 0.1584 0.83899
vt 0.15843 0.83884
vt 0.15841 0.83876
vt 0.15678 0.83718
vt 0.15824 0.83885
vt 0.1563 0.8408
vt 0.15831 0.83892
vt 0.15841 0.83889
vt 0.15838 0.83894
vt 0.11188 0.82657
vt 0.11271 0.82674
vt 0.11139 0.82774
vt 0.11115 0.82707
vt 0.16719 0.83226
vt 0.17049 0.83665
vt 0.1634 0.83373
vt 0.16681 0.83222
vt 0.10995 0.82734
vt 0.11082 0.82678
vt 0.11117 0.82605
vt 0.11107 0.82527
vt 0.16447 0.83056
vt 0.16678 0.83194
vt 0.17049 0.8288
vt 0.16724 0.8319
vt 0.16732 0.83216
vt 0.16732 0.83218
vt 0.1673 0.83217
vt 0.16731 0.83215
vt 0.1162 0.82608
vt 0.11934 0.82515
vt 0.11316 0.8243
vt 0.1138 0.82573
vt 0.11442 0.82705
vt 0.11348 0.82762
vt 0.11194 0.82868
vt 0.11044 0.829
vt 0.11714 0.82809
vt 0.12009 0.82714
vt 0.11768 0.82986
vt 0.11744 0.82899
vt 0.12039 0.82827
vt 0.12059 0.82949
vt 0.11542 0.82875
vt 0.1157 0.82959
vt 0.11594 0.83042
vt 0.11449 0.8292
vt 0.1148 0.82989
vt 0.11507 0.83057
vt 0.11273 0.82958
vt 0.11292 0.83032
vt 0.11313 0.83079
vt 0.111 0.82989
vt 0.11153 0.83055
vt 0.11117 0.83104
vt 0.71313 0.25181
vt 0.70408 0.32846
vt 0.7479 0.39442
vt 0.7517 0.46241
vt 0.7659 0.54849
vt 0.73905 0.58354
vt 0.10792 0.83072
vt 0.10857 0.83125
vt 0.10852 0.8279
vt 0.10911 0.82969
vt 0.10967 0.83079
vt 0.72601 0.63345
vt 0.73453 0.67955
vt 0.10755 0.82931
vt 0.12051 0.8239
vt 0.70898 0.17731
vt 0.12203 0.82519
vt 0.714 0.11856
vt 0.69176 0.08648
vt 0.7659 0.06655
vt 0.71149 0.06542
vt 0.72172 0.0135
vt 0.7476 0.0389
vt 0.70965 0.04959
vt 0.70229 0.03446
vt 0.12204 0.84371
vt 0.12269 0.84681
vt 0.12396 0.84551
vt 0.12505 0.84628
vt 0.12421 0.84757
vt 0.12585 0.84774
vt 0.1262 0.84643
vt 0.12509 0.84306
vt 0.12486 0.845
vt 0.17223 0.84324
vt 0.17202 0.83576
vt 0.17897 0.8371
vt 0.17897 0.84242
vt 0.16629 0.84028
vt 0.16595 0.83833
vt 0.12699 0.84542
vt 0.12718 0.8457
vt 0.12711 0.84565
vt 0.1271 0.84571
vt 0.12709 0.84572
vt 0.12697 0.84602
vt 0.12706 0.84577
vt 0.1271 0.84574
vt 0.1271 0.84574
vt 0.12702 0.84578
vt 0.12666 0.84571
vt 0.12556 0.84533
vt 0.12622 0.84563
vt 0.12673 0.84522
vt 0.12615 0.84474
vt 0.12576 0.84434
vt 0.12544 0.84399
vt 0.12566 0.84366
vt 0.26111 0.88224
vt 0.26014 0.88917
vt 0.25962 0.88929
vt 0.25887 0.88223
vt 0.25971 0.87518
vt 0.26023 0.87531
vt 0.12514 0.84301
vt 0.17116 0.97341
vt 0.17933 0.96871
vt 0.17937 0.98839
vt 0.17176 0.98264
vt 0.17971 0.96852
vt 0.17971 0.98863
vt 0.16365 0.96769
vt 0.16238 0.95844
vt 0.1624 0.95801
vt 0.15725 0.96917
vt 0.14984 0.96341
vt 0.14951 0.96316
vt 0.14839 0.97819
vt 0.14799 0.97832
vt 0.15743 0.9764
vt 0.16206 0.99309
vt 0.16196 0.9935
vt 0.16356 0.98401
usemtl mat0
f 1/1/1 2/2/1 3/3/1
f 3/3/1 4/4/1 1/1/1
f 5/5/2 6/6/2 4/4/2
f 4/4/2 3/3/2 5/5/2
f 7/7/3 8/8/3 3/3/3
f 3/3/3 2/2/3 7/7/3
f 8/8/4 9/9/4 5/5/4
f 5/5/4 3/3/4 8/8/4
f 10/10/5 11/11/5 8/8/5
f 8/8/5 7/7/5 10/10/5
f 11/11/6 12/12/6 9/9/6
f 9/9/6 8/8/6 11/11/6
f 10/10/7 1/1/7 4/4/7
f 4/4/7 11/11/7 10/10/7
f 11/11/8 4/4/8 6/6/8
f 6/6/8 12/12/8 11/11/8
f 13/13/9 14/14/9 15/15/9
f 15/15/9 16/16/9 13/13/9
f 16/16/10 17/17/10 18/18/10
f 18/18/10 19/19/10 16/16/10
f 17/17/11 20/20/11 21/21/11
f 21/21/11 18/18/11 17/17/11
f 15/15/12 22/22/12 21/21/12
f 21/21/12 20/20/12 15/15/12
f 19/19/13 23/23/13 13/13/13
f 13/13/13 16/16/13 19/19/13
f 13/13/14 23/23/14 24/24/14
f 24/24/14 14/14/14 13/13/14
f 22/22/15 15/15/15 14/14/15
f 14/14/15 24/24/15 22/22/15
f 22/22/16 24/24/16 23/23/16
f 23/23/16 19/19/16 22/22/16
f 22/22/17 19/19/17 18/18/17
f 18/18/17 21/21/17 22/22/17
f 25/25/18 26/26/18 27/27/18
f 27/27/18 28/28/18 25/25/18
f 29/29/19 30/30/19 31/31/19
f 31/31/19 32/32/19 29/29/19
f 33/33/20 27/27/20 26/26/20
f 26/26/20 34/34/20 33/33/20
f 35/35/21 36/36/21 33/33/21
f 33/33/21 34/34/21 35/35/21
f 36/36/22 35/35/22 25/25/22
f 25/25/22 28/28/22 36/36/22
f 31/31/23 30/30/23 37/37/23
f 37/37/23 38/38/23 31/31/23
f 37/37/24 39/39/24 40/40/24
f 40/40/24 38/38/24 37/37/24
f 41/41/25 42/42/25 32/32/25
f 32/32/25 40/40/25 41/41/25
f 42/42/26 43/43/26 29/29/26
f 29/29/26 32/32/26 42/42/26
f 40/40/27 39/39/27 44/44/27
f 44/44/27 41/41/27 40/40/27
f 43/43/28 42/42/28 41/41/28
f 41/41/28 44/44/28 43/43/28
f 44/44/16 39/39/16 29/29/16
f 29/29/16 43/43/16 44/44/16
f 39/39/29 37/37/29 30/30/29
f 30/30/29 29/29/29 39/39/29
f 45/45/30 46/46/30 2/2/30
f 2/2/30 1/1/30 45/45/30
f 47/47/31 48/48/31 1/1/31
f 1/1/31 10/10/31 47/47/31
f 48/48/32 47/47/32 36/36/32
f 36/36/32 28/28/32 48/48/32
f 48/48/33 49/49/33 45/45/33
f 45/45/33 1/1/33 48/48/33
f 48/48/34 28/28/34 50/50/34
f 50/50/34 49/49/34 48/48/34
f 28/28/35 27/27/35 51/51/35
f 51/51/35 50/50/35 28/28/35
f 27/27/36 33/33/36 52/52/36
f 52/52/36 51/51/36 27/27/36
f 53/53/37 54/54/37 46/46/37
f 46/46/37 45/45/37 53/53/37
f 55/55/38 56/56/38 57/57/38
f 57/57/38 58/58/38 55/55/38
f 59/59/39 60/60/39 56/56/39
f 56/56/39 55/55/39 59/59/39
f 45/45/40 49/49/40 61/61/40
f 61/61/40 53/53/40 45/45/40
f 61/61/41 62/62/41 58/58/41
f 58/58/41 53/53/41 61/61/41
f 63/63/42 64/64/42 59/59/42
f 59/59/42 55/55/42 63/63/42
f 49/49/43 50/50/43 65/65/43
f 65/65/43 61/61/43 49/49/43
f 65/65/44 66/66/44 62/62/44
f 62/62/44 61/61/44 65/65/44
f 67/67/45 68/68/45 64/64/45
f 64/64/45 63/63/45 67/67/45
f 50/50/46 51/51/46 69/69/46
f 69/69/46 65/65/46 50/50/46
f 69/69/47 70/70/47 66/66/47
f 66/66/47 65/65/47 69/69/47
f 71/71/48 72/72/48 68/68/48
f 68/68/48 67/67/48 71/71/48
f 51/51/49 52/52/49 73/73/49
f 73/73/49 69/69/49 51/51/49
f 73/73/50 74/74/50 70/70/50
f 70/70/50 69/69/50 73/73/50
f 75/75/51 76/76/51 72/72/51
f 72/72/51 71/71/51 75/75/51
f 77/77/52 78/78/52 79/79/52
f 79/79/52 80/80/52 77/77/52
f 78/78/53 81/81/53 82/82/53
f 82/82/53 79/79/53 78/78/53
f 81/81/54 83/83/54 84/84/54
f 84/84/54 82/82/54 81/81/54
f 83/83/55 85/85/55 86/86/55
f 86/86/55 84/84/55 83/83/55
f 86/86/56 85/85/56 87/87/56
f 87/87/56 88/88/56 86/86/56
f 89/89/57 90/90/57 91/91/57
f 91/91/57 92/92/57 89/89/57
f 93/93/58 94/94/58 52/52/58
f 52/52/58 33/33/58 93/93/58
f 95/95/59 90/90/59 89/89/59
f 89/89/59 96/96/59 95/95/59
f 96/96/60 76/76/60 75/75/60
f 75/75/60 95/95/60 96/96/60
f 97/97/61 98/98/61 99/99/61
f 99/99/61 100/100/61 97/97/61
f 100/100/62 99/99/62 88/88/62
f 88/88/62 87/87/62 100/100/62
f 91/91/63 94/94/63 93/93/63
f 93/93/63 101/101/63 91/91/63
f 91/91/64 90/90/64 95/95/64
f 95/95/64 94/94/64 91/91/64
f 94/94/65 95/95/65 73/73/65
f 73/73/65 52/52/65 94/94/65
f 75/75/66 74/74/66 73/73/66
f 73/73/66 95/95/66 75/75/66
f 46/46/67 102/102/67 7/7/67
f 7/7/67 2/2/67 46/46/67
f 103/103/68 104/104/68 77/77/68
f 77/77/68 80/80/68 103/103/68
f 46/46/69 54/54/69 105/105/69
f 105/105/69 102/102/69 46/46/69
f 103/103/70 106/106/70 107/107/70
f 107/107/70 104/104/70 103/103/70
f 106/106/71 108/108/71 109/109/71
f 109/109/71 107/107/71 106/106/71
f 110/110/72 111/111/72 108/108/72
f 108/108/72 106/106/72 110/110/72
f 112/112/73 113/113/73 114/114/73
f 114/114/73 115/115/73 112/112/73
f 116/116/74 117/117/74 113/113/74
f 113/113/74 112/112/74 116/116/74
f 118/118/75 119/119/75 120/120/75
f 120/120/75 121/121/75 118/118/75
f 122/122/76 123/123/76 119/119/76
f 119/119/76 118/118/76 122/122/76
f 122/122/77 124/124/77 125/125/77
f 125/125/77 123/123/77 122/122/77
f 126/126/78 127/127/78 128/128/78
f 128/128/78 129/129/78 126/126/78
f 130/130/79 131/131/79 132/132/79
f 132/132/79 133/133/79 130/130/79
f 119/119/80 123/123/80 134/134/80
f 134/134/80 135/135/80 119/119/80
f 136/136/81 137/137/81 138/138/81
f 138/138/81 139/139/81 136/136/81
f 140/140/82 136/136/82 139/139/82
f 139/139/82 141/141/82 140/140/82
f 142/142/83 143/143/83 144/144/83
f 144/144/83 145/145/83 142/142/83
f 144/144/84 143/143/84 146/146/84
f 146/146/84 147/147/84 144/144/84
f 145/145/85 144/144/85 148/148/85
f 148/148/85 149/149/85 145/145/85
f 148/148/86 144/144/86 147/147/86
f 147/147/86 150/150/86 148/148/86
f 147/147/87 146/146/87 151/151/87
f 151/151/87 150/150/87 147/147/87
f 150/150/88 151/151/88 152/152/88
f 152/152/88 148/148/88 150/150/88
f 148/148/89 152/152/89 153/153/89
f 153/153/89 149/149/89 148/148/89
f 149/149/90 129/129/90 128/128/90
f 128/128/90 145/145/90 149/149/90
f 124/124/91 126/126/91 129/129/91
f 129/129/91 125/125/91 124/124/91
f 115/115/92 114/114/92 111/111/92
f 111/111/92 110/110/92 115/115/92
f 74/74/93 75/75/93 71/71/93
f 71/71/93 70/70/93 74/74/93
f 70/70/94 71/71/94 67/67/94
f 67/67/94 66/66/94 70/70/94
f 66/66/95 67/67/95 63/63/95
f 63/63/95 62/62/95 66/66/95
f 62/62/96 63/63/96 55/55/96
f 55/55/96 58/58/96 62/62/96
f 58/58/97 57/57/97 54/54/97
f 54/54/97 53/53/97 58/58/97
f 123/123/98 125/125/98 154/154/98
f 154/154/98 134/134/98 123/123/98
f 125/125/99 129/129/99 155/155/99
f 155/155/99 154/154/99 125/125/99
f 149/149/100 153/153/100 155/155/100
f 155/155/100 129/129/100 149/149/100
f 142/142/101 156/156/101 155/155/101
f 155/155/101 153/153/101 142/142/101
f 145/145/102 157/157/102 156/156/102
f 156/156/102 142/142/102 145/145/102
f 158/158/103 156/156/103 157/157/103
f 157/157/103 159/159/103 158/158/103
f 155/155/104 156/156/104 158/158/104
f 158/158/104 154/154/104 155/155/104
f 158/158/105 160/160/105 134/134/105
f 134/134/105 154/154/105 158/158/105
f 161/161/106 160/160/106 162/162/106
f 162/162/106 163/163/106 161/161/106
f 164/164/107 165/165/107 135/135/107
f 135/135/107 134/134/107 160/160/107
f 160/160/107 164/164/107 135/135/107
f 160/160/108 158/158/108 159/159/108
f 159/159/108 162/162/108 160/160/108
f 166/166/109 120/120/109 167/167/109
f 167/167/109 131/131/109 166/166/109
f 168/168/110 169/169/110 170/170/110
f 170/170/110 171/171/110 168/168/110
f 172/172/111 170/170/111 169/169/111
f 169/169/111 173/173/111 172/172/111
f 174/174/112 171/171/112 170/170/112
f 170/170/112 175/175/112 174/174/112
f 175/175/113 170/170/113 172/172/113
f 172/172/113 176/176/113 175/175/113
f 177/177/114 174/174/114 175/175/114
f 175/175/114 178/178/114 177/177/114
f 178/178/115 175/175/115 176/176/115
f 176/176/115 179/179/115 178/178/115
f 177/177/116 178/178/116 169/169/116
f 169/169/116 168/168/116 177/177/116
f 178/178/117 179/179/117 173/173/117
f 173/173/117 169/169/117 178/178/117
f 180/180/118 181/181/118 182/182/118
f 182/182/118 183/183/118 180/180/118
f 181/181/119 184/184/119 185/185/119
f 185/185/119 186/186/119 181/181/119
f 186/186/120 185/185/120 187/187/120
f 187/187/120 188/188/120 186/186/120
f 182/182/121 188/188/121 187/187/121
f 187/187/121 189/189/121 182/182/121
f 184/184/122 181/181/122 180/180/122
f 180/180/122 190/190/122 184/184/122
f 180/180/123 183/183/123 191/191/123
f 191/191/123 190/190/123 180/180/123
f 189/189/124 191/191/124 183/183/124
f 183/183/124 182/182/124 189/189/124
f 189/189/125 184/184/125 190/190/125
f 190/190/125 191/191/125 189/189/125
f 189/189/126 187/187/126 185/185/126
f 185/185/126 184/184/126 189/189/126
f 192/192/127 193/193/127 194/194/127
f 194/194/127 195/195/127 192/192/127
f 196/196/128 197/197/128 198/198/128
f 198/198/128 199/199/128 196/196/128
f 200/200/129 201/201/129 195/195/129
f 195/195/129 194/194/129 200/200/129
f 202/202/130 201/201/130 200/200/130
f 200/200/130 203/203/130 202/202/130
f 203/203/131 193/193/131 192/192/131
f 192/192/131 202/202/131 203/203/131
f 198/198/132 204/204/132 205/205/132
f 205/205/132 199/199/132 198/198/132
f 205/205/133 204/204/133 206/206/133
f 206/206/133 207/207/133 205/205/133
f 208/208/134 206/206/134 197/197/134
f 197/197/134 209/209/134 208/208/134
f 209/209/135 197/197/135 196/196/135
f 196/196/135 210/210/135 209/209/135
f 206/206/136 208/208/136 211/211/136
f 211/211/136 207/207/136 206/206/136
f 210/210/137 211/211/137 208/208/137
f 208/208/137 209/209/137 210/210/137
f 211/211/138 210/210/138 196/196/138
f 196/196/138 207/207/138 211/211/138
f 207/207/139 196/196/139 199/199/139
f 199/199/139 205/205/139 207/207/139
f 212/212/140 168/168/140 171/171/140
f 171/171/140 213/213/140 212/212/140
f 214/214/141 177/177/141 168/168/141
f 168/168/141 215/215/141 214/214/141
f 215/215/142 193/193/142 203/203/142
f 203/203/142 214/214/142 215/215/142
f 215/215/143 168/168/143 212/212/143
f 212/212/143 216/216/143 215/215/143
f 215/215/144 216/216/144 217/217/144
f 217/217/144 193/193/144 215/215/144
f 193/193/145 217/217/145 218/218/145
f 218/218/145 194/194/145 193/193/145
f 194/194/146 218/218/146 219/219/146
f 219/219/146 200/200/146 194/194/146
f 220/220/147 212/212/147 213/213/147
f 213/213/147 221/221/147 220/220/147
f 222/222/148 223/223/148 224/224/148
f 224/224/148 225/225/148 222/222/148
f 59/59/149 222/222/149 225/225/149
f 225/225/149 60/60/149 59/59/149
f 212/212/150 220/220/150 226/226/150
f 226/226/150 216/216/150 212/212/150
f 226/226/151 220/220/151 223/223/151
f 223/223/151 227/227/151 226/226/151
f 228/228/152 222/222/152 59/59/152
f 59/59/152 64/64/152 228/228/152
f 216/216/153 226/226/153 229/229/153
f 229/229/153 217/217/153 216/216/153
f 229/229/154 226/226/154 227/227/154
f 227/227/154 230/230/154 229/229/154
f 231/231/155 228/228/155 64/64/155
f 64/64/155 68/68/155 231/231/155
f 217/217/156 229/229/156 232/232/156
f 232/232/156 218/218/156 217/217/156
f 232/232/157 229/229/157 230/230/157
f 230/230/157 233/233/157 232/232/157
f 234/234/158 231/231/158 68/68/158
f 68/68/158 72/72/158 234/234/158
f 218/218/159 232/232/159 235/235/159
f 235/235/159 219/219/159 218/218/159
f 235/235/160 232/232/160 233/233/160
f 233/233/160 236/236/160 235/235/160
f 237/237/161 234/234/161 72/72/161
f 72/72/161 76/76/161 237/237/161
f 77/77/162 238/238/162 239/239/162
f 239/239/162 78/78/162 77/77/162
f 78/78/163 239/239/163 240/240/163
f 240/240/163 81/81/163 78/78/163
f 81/81/164 240/240/164 241/241/164
f 241/241/164 83/83/164 81/81/164
f 83/83/165 241/241/165 242/242/165
f 242/242/165 85/85/165 83/83/165
f 242/242/166 243/243/166 87/87/166
f 87/87/166 85/85/166 242/242/166
f 89/89/167 92/92/167 244/244/167
f 244/244/167 245/245/167 89/89/167
f 246/246/168 200/200/168 219/219/168
f 219/219/168 247/247/168 246/246/168
f 248/248/169 96/96/169 89/89/169
f 89/89/169 245/245/169 248/248/169
f 96/96/170 248/248/170 237/237/170
f 237/237/170 76/76/170 96/96/170
f 97/97/171 100/100/171 249/249/171
f 249/249/171 250/250/171 97/97/171
f 100/100/172 87/87/172 243/243/172
f 243/243/172 249/249/172 100/100/172
f 244/244/173 251/251/173 246/246/173
f 246/246/173 247/247/173 244/244/173
f 244/244/174 247/247/174 248/248/174
f 248/248/174 245/245/174 244/244/174
f 247/247/175 219/219/175 235/235/175
f 235/235/175 248/248/175 247/247/175
f 237/237/176 248/248/176 235/235/176
f 235/235/176 236/236/176 237/237/176
f 213/213/177 171/171/177 174/174/177
f 174/174/177 252/252/177 213/213/177
f 253/253/178 238/238/178 77/77/178
f 77/77/178 104/104/178 253/253/178
f 213/213/179 252/252/179 254/254/179
f 254/254/179 221/221/179 213/213/179
f 253/253/180 104/104/180 107/107/180
f 107/107/180 255/255/180 253/253/180
f 255/255/181 107/107/181 109/109/181
f 109/109/181 256/256/181 255/255/181
f 257/257/182 255/255/182 256/256/182
f 256/256/182 258/258/182 257/257/182
f 259/259/183 260/260/183 261/261/183
f 261/261/183 262/262/183 259/259/183
f 116/116/184 259/259/184 262/262/184
f 262/262/184 117/117/184 116/116/184
f 263/263/185 121/121/185 120/120/185
f 120/120/185 166/166/185 263/263/185
f 264/264/186 263/263/186 166/166/186
f 166/166/186 265/265/186 264/264/186
f 264/264/187 265/265/187 266/266/187
f 266/266/187 267/267/187 264/264/187
f 268/268/188 269/269/188 128/128/188
f 128/128/188 127/127/188 268/268/188
f 119/119/189 135/135/189 270/270/189
f 270/270/189 120/120/189 119/119/189
f 166/166/190 131/131/190 271/271/190
f 271/271/190 265/265/190 166/166/190
f 272/272/191 273/273/191 274/274/191
f 274/274/191 275/275/191 272/272/191
f 276/276/192 277/277/192 273/273/192
f 273/273/192 272/272/192 276/276/192
f 278/278/193 145/145/193 279/279/193
f 279/279/193 280/280/193 278/278/193
f 279/279/194 281/281/194 282/282/194
f 282/282/194 280/280/194 279/279/194
f 145/145/195 283/283/195 284/284/195
f 284/284/195 279/279/195 145/145/195
f 284/284/196 285/285/196 281/281/196
f 281/281/196 279/279/196 284/284/196
f 281/281/197 285/285/197 286/286/197
f 286/286/197 282/282/197 281/281/197
f 285/285/198 284/284/198 287/287/198
f 287/287/198 286/286/198 285/285/198
f 284/284/199 283/283/199 288/288/199
f 288/288/199 287/287/199 284/284/199
f 283/283/200 145/145/200 128/128/200
f 128/128/200 269/269/200 283/283/200
f 267/267/201 266/266/201 269/269/201
f 269/269/201 268/268/201 267/267/201
f 260/260/202 257/257/202 258/258/202
f 258/258/202 261/261/202 260/260/202
f 236/236/203 233/233/203 234/234/203
f 234/234/203 237/237/203 236/236/203
f 233/233/204 230/230/204 231/231/204
f 231/231/204 234/234/204 233/233/204
f 230/230/205 227/227/205 228/228/205
f 228/228/205 231/231/205 230/230/205
f 227/227/206 223/223/206 222/222/206
f 222/222/206 228/228/206 227/227/206
f 223/223/207 220/220/207 221/221/207
f 221/221/207 224/224/207 223/223/207
f 265/265/208 271/271/208 289/289/208
f 289/289/208 266/266/208 265/265/208
f 266/266/209 289/289/209 290/290/209
f 290/290/209 269/269/209 266/266/209
f 283/283/210 269/269/210 290/290/210
f 290/290/210 288/288/210 283/283/210
f 278/278/211 288/288/211 290/290/211
f 290/290/211 291/291/211 278/278/211
f 145/145/212 278/278/212 291/291/212
f 291/291/212 157/157/212 145/145/212
f 292/292/213 159/159/213 157/157/213
f 157/157/213 291/291/213 292/292/213
f 290/290/214 289/289/214 292/292/214
f 292/292/214 291/291/214 290/290/214
f 292/292/215 289/289/215 271/271/215
f 271/271/215 293/293/215 292/292/215
f 294/294/216 295/295/216 162/162/216
f 162/162/216 293/293/216 294/294/216
f 293/293/217 271/271/217 131/131/217
f 131/131/217 130/130/217 294/294/217
f 294/294/217 293/293/217 131/131/217
f 293/293/218 162/162/218 159/159/218
f 159/159/218 292/292/218 293/293/218
f 296/296/219 297/297/219 298/298/219
f 298/298/219 299/299/219 296/296/219
f 299/299/220 300/300/220 301/301/220
f 301/301/220 296/296/220 299/299/220
f 165/165/221 133/133/221 302/302/221
f 302/302/221 135/135/221 165/165/221
f 303/303/222 304/304/222 305/305/222
f 305/305/222 306/306/222 303/303/222
f 304/304/223 307/307/223 308/308/223
f 308/308/223 305/305/223 304/304/223
f 309/309/224 310/310/224 304/304/224
f 304/304/224 303/303/224 309/309/224
f 310/310/225 311/311/225 307/307/225
f 307/307/225 304/304/225 310/310/225
f 312/312/226 313/313/226 310/310/226
f 310/310/226 309/309/226 312/312/226
f 313/313/227 314/314/227 311/311/227
f 311/311/227 310/310/227 313/313/227
f 315/315/228 316/316/228 314/314/228
f 314/314/228 313/313/228 315/315/228
f 317/317/229 315/315/229 313/313/229
f 313/313/229 312/312/229 317/317/229
f 318/318/230 319/319/230 316/316/230
f 316/316/230 315/315/230 318/318/230
f 320/320/231 318/318/231 315/315/231
f 315/315/231 317/317/231 320/320/231
f 305/305/232 308/308/232 319/319/232
f 319/319/232 318/318/232 305/305/232
f 306/306/233 305/305/233 318/318/233
f 318/318/233 320/320/233 306/306/233
f 312/312/234 309/309/234 303/303/234
f 303/303/234 306/306/234 320/320/234
f 320/320/234 317/317/234 312/312/234
f 312/312/234 303/303/234 320/320/234
f 321/303/235 322/306/235 323/305/235
f 323/305/235 324/304/235 321/303/235
f 324/304/236 323/305/236 325/308/236
f 325/308/236 326/307/236 324/304/236
f 327/309/237 321/303/237 324/304/237
f 324/304/237 328/310/237 327/309/237
f 328/310/238 324/304/238 326/307/238
f 326/307/238 329/311/238 328/310/238
f 330/312/239 327/309/239 328/310/239
f 328/310/239 331/313/239 330/312/239
f 331/313/240 328/310/240 329/311/240
f 329/311/240 332/314/240 331/313/240
f 333/315/241 331/313/241 332/314/241
f 332/314/241 334/316/241 333/315/241
f 335/317/242 330/312/242 331/313/242
f 331/313/242 333/315/242 335/317/242
f 336/318/243 333/315/243 334/316/243
f 334/316/243 337/319/243 336/318/243
f 338/320/244 335/317/244 333/315/244
f 333/315/244 336/318/244 338/320/244
f 323/305/245 336/318/245 337/319/245
f 337/319/245 325/308/245 323/305/245
f 322/306/246 338/320/246 336/318/246
f 336/318/246 323/305/246 322/306/246
f 338/320/247 322/306/247 321/303/247
f 321/303/247 327/309/247 330/312/247
f 330/312/247 335/317/247 338/320/247
f 338/320/247 321/303/247 330/312/247
# Vertices: 338, normals: 247, texture coordinates: 320, faces: 502

