# Blender 4.5.3 LTS
# www.blender.org
mtllib burger.mtl
o Cube
v -0.500000 0.014096 0.500000
v -0.500000 0.690942 0.500000
v -0.500000 0.014096 -0.500000
v -0.500000 0.690942 -0.500000
v 0.500000 0.014096 0.500000
v 0.500000 0.690942 0.500000
v 0.500000 0.014096 -0.500000
v 0.500000 0.690942 -0.500000
v -0.666667 0.436582 0.666667
v -0.666667 0.436582 -0.666667
v 0.666667 0.436582 -0.666667
v 0.666667 0.436582 0.666667
v -0.666667 0.128369 -0.666667
v 0.666667 0.128369 -0.666667
v 0.666667 0.128369 0.666667
v -0.666667 0.128369 0.666667
v -0.609568 0.002197 0.000000
v -0.638117 0.594506 0.638117
v -0.609568 0.709790 0.000000
v -0.638117 0.011355 -0.638117
v 0.000000 0.002197 -0.609568
v -0.000000 0.709790 -0.609568
v 0.638117 0.011355 -0.638117
v 0.609568 0.002197 0.000000
v 0.609568 0.709790 0.000000
v 0.638117 0.011355 0.638117
v -0.000000 0.002197 0.609568
v -0.000000 0.709790 0.609568
v -0.666667 0.274548 0.666667
v -0.638117 0.594506 -0.638117
v 0.638117 0.594506 -0.638117
v 0.638117 0.594506 0.638117
v 0.000000 0.436582 0.916667
v 0.916667 0.436582 0.000000
v 0.000000 0.436582 -0.916667
v -0.916667 0.436582 0.000000
v -0.666667 0.274548 -0.666667
v 0.666667 0.274548 -0.666667
v 0.666667 0.274548 0.666667
v -0.638117 0.011355 0.638117
v -0.916667 0.128369 0.000000
v -0.000000 0.128369 -0.916667
v 0.916667 0.128369 -0.000000
v 0.000000 0.128369 0.916667
v -0.878087 0.596364 -0.000000
v -0.000000 0.596364 -0.878087
v 0.878087 0.596364 -0.000000
v 0.000000 0.596364 0.878087
v 0.000000 -0.017996 -0.000000
v -0.000000 0.749344 0.000000
v 0.000000 0.274548 0.916667
v 0.916667 0.274548 0.000000
v 0.000000 0.274548 -0.916667
v -0.916667 0.274548 0.000000
v -0.878087 0.010181 0.000000
v -0.000000 0.010181 -0.878087
v 0.878087 0.010181 -0.000000
v 0.000000 0.010181 0.878087
v -0.660579 0.470257 0.660579
v -0.660579 0.470257 -0.660579
v 0.660579 0.470257 -0.660579
v 0.660579 0.470257 0.660579
v -0.908440 0.470653 -0.000000
v -0.000000 0.470653 -0.908440
v 0.908440 0.470653 -0.000000
v 0.000000 0.470653 0.908440
vn -0.9123 0.2236 0.3431
vn -0.4149 0.8985 0.1438
vn -0.4149 0.8985 -0.1438
vn -0.9123 0.2236 -0.3431
vn -0.3431 0.2236 -0.9123
vn -0.1438 0.8985 -0.4149
vn 0.1438 0.8985 -0.4149
vn 0.3431 0.2236 -0.9123
vn 0.9123 0.2236 -0.3431
vn 0.4149 0.8985 -0.1438
vn 0.4149 0.8985 0.1438
vn 0.9123 0.2236 0.3431
vn 0.3431 0.2236 0.9123
vn 0.1438 0.8985 0.4149
vn -0.1438 0.8985 0.4149
vn -0.3431 0.2236 0.9123
vn -0.0321 -0.9990 -0.0321
vn 0.0321 -0.9990 -0.0321
vn 0.0321 -0.9990 0.0321
vn -0.0321 -0.9990 0.0321
vn 0.0582 0.9966 -0.0582
vn -0.0582 0.9966 -0.0582
vn -0.0582 0.9966 0.0582
vn 0.0582 0.9966 0.0582
vn 0.3511 -0.0000 0.9363
vn -0.3511 -0.0000 0.9363
vn 0.9363 -0.0000 -0.3511
vn 0.9363 -0.0000 0.3511
vn -0.3511 -0.0000 -0.9363
vn 0.3511 -0.0000 -0.9363
vn -0.9363 -0.0000 0.3511
vn -0.9363 -0.0000 -0.3511
vn -0.0081 -0.9999 0.0140
vn -0.8941 -0.2960 0.3360
vn -0.8941 -0.2960 -0.3360
vn -0.0081 -0.9999 -0.0140
vn -0.0140 -0.9999 -0.0081
vn -0.3360 -0.2960 -0.8941
vn 0.3360 -0.2960 -0.8941
vn 0.0140 -0.9999 -0.0081
vn 0.0081 -0.9999 -0.0140
vn 0.8941 -0.2960 -0.3360
vn 0.8941 -0.2960 0.3360
vn 0.0081 -0.9999 0.0140
vn 0.0140 -0.9999 0.0081
vn 0.3360 -0.2960 0.8941
vn -0.3360 -0.2960 0.8941
vn -0.0140 -0.9999 0.0081
vn -0.3424 0.2236 0.9126
vn 0.3424 0.2236 0.9126
vn 0.9126 0.2236 0.3424
vn 0.9126 0.2236 -0.3424
vn 0.3424 0.2236 -0.9126
vn -0.3424 0.2236 -0.9126
vn -0.9126 0.2236 -0.3424
vn -0.9126 0.2236 0.3424
vt 0.559947 0.303604
vt 0.506453 0.282025
vt 0.499283 0.169472
vt 0.559261 0.143974
vt 0.461112 0.263736
vt 0.445289 0.192426
vt 0.404917 0.131554
vt 0.423207 0.086213
vt 0.444786 0.032718
vt 0.310654 0.093382
vt 0.285156 0.033404
vt 0.333608 0.147376
vt 0.272735 0.187748
vt 0.227395 0.169458
vt 0.173900 0.147879
vt 0.234564 0.282012
vt 0.174586 0.307510
vt 0.288558 0.259057
vt 0.328930 0.319930
vt 0.310640 0.365271
vt 0.289061 0.418765
vt 0.423193 0.358101
vt 0.448692 0.418079
vt 0.400239 0.304107
vt 0.385696 0.775225
vt 0.304610 0.759454
vt 0.342730 0.669302
vt 0.432882 0.707422
vt 0.236806 0.712268
vt 0.252577 0.631181
vt 0.299763 0.563378
vt 0.380850 0.579149
vt 0.448653 0.626335
vt 0.366924 0.225742
vt 0.122611 0.874914
vt 0.064514 0.874914
vt 0.064514 0.749943
vt 0.122611 0.749943
vt 0.000115 0.874914
vt 0.000115 0.749943
vt 0.000115 0.624971
vt 0.064514 0.624971
vt 0.122611 0.624971
vt 0.122611 0.125086
vt 0.064514 0.125086
vt 0.064514 0.000114
vt 0.122611 0.000114
vt 0.000115 0.125086
vt 0.000115 0.000114
vt 0.064514 0.999885
vt 0.000115 0.999885
vt 0.122612 0.999885
vt 0.122611 0.375029
vt 0.064514 0.375029
vt 0.064514 0.250057
vt 0.122611 0.250057
vt 0.000115 0.375029
vt 0.000115 0.250057
vt 0.122611 0.125086
vt 0.064514 0.500000
vt 0.122611 0.500000
vt 0.000115 0.500000
vt 0.480489 0.613421
vt 0.472561 0.724200
vt 0.529416 0.593574
vt 0.529416 0.748240
vt 0.418457 0.855988
vt 0.398610 0.807061
vt 0.287832 0.799133
vt 0.263791 0.855988
vt 0.156044 0.745029
vt 0.204970 0.725182
vt 0.212898 0.614404
vt 0.156044 0.590363
vt 0.267003 0.482615
vt 0.286849 0.531542
vt 0.397628 0.539470
vt 0.421668 0.482615
vt 0.456567 0.436604
vt 0.577786 0.310800
vt 0.281865 0.436604
vt 0.156061 0.315385
vt 0.156061 0.140683
vt 0.277280 0.014879
vt 0.451982 0.014879
vt 0.577786 0.136098
s 0
usemtl Material.001
f 59/1/1 18/2/1 45/3/1 63/4/1
f 18/2/2 2/5/2 19/6/2 45/3/2
f 45/3/3 19/6/3 4/7/3 30/8/3
f 63/4/4 45/3/4 30/8/4 60/9/4
f 60/9/5 30/8/5 46/10/5 64/11/5
f 30/8/6 4/7/6 22/12/6 46/10/6
f 46/10/7 22/12/7 8/13/7 31/14/7
f 64/11/8 46/10/8 31/14/8 61/15/8
f 61/15/9 31/14/9 47/16/9 65/17/9
f 31/14/10 8/13/10 25/18/10 47/16/10
f 47/16/11 25/18/11 6/19/11 32/20/11
f 65/17/12 47/16/12 32/20/12 62/21/12
f 62/21/13 32/20/13 48/22/13 66/23/13
f 32/20/14 6/19/14 28/24/14 48/22/14
f 48/22/15 28/24/15 2/5/15 18/2/15
f 66/23/16 48/22/16 18/2/16 59/1/16
f 3/25/17 21/26/17 49/27/17 17/28/17
f 21/26/18 7/29/18 24/30/18 49/27/18
f 49/27/19 24/30/19 5/31/19 27/32/19
f 17/28/20 49/27/20 27/32/20 1/33/20
f 8/13/21 22/12/21 50/34/21 25/18/21
f 22/12/22 4/7/22 19/6/22 50/34/22
f 50/34/23 19/6/23 2/5/23 28/24/23
f 25/18/24 50/34/24 28/24/24 6/19/24
f 15/35/25 39/36/25 51/37/25 44/38/25
f 39/36/25 12/39/25 33/40/25 51/37/25
f 51/37/26 33/40/26 9/41/26 29/42/26
f 44/38/26 51/37/26 29/42/26 16/43/26
f 14/44/27 38/45/27 52/46/27 43/47/27
f 38/45/27 11/48/27 34/49/27 52/46/27
f 52/50/28 34/51/28 12/39/28 39/36/28
f 43/52/28 52/50/28 39/36/28 15/35/28
f 13/53/29 37/54/29 53/55/29 42/56/29
f 37/54/29 10/57/29 35/58/29 53/55/29
f 53/55/30 35/58/30 11/48/30 38/45/30
f 42/56/30 53/55/30 38/45/30 14/59/30
f 16/43/31 29/42/31 54/60/31 41/61/31
f 29/42/31 9/41/31 36/62/31 54/60/31
f 54/60/32 36/62/32 10/57/32 37/54/32
f 41/61/32 54/60/32 37/54/32 13/53/32
f 1/33/33 40/63/33 55/64/33 17/28/33
f 40/63/34 16/65/34 41/66/34 55/64/34
f 55/64/35 41/66/35 13/67/35 20/68/35
f 17/28/36 55/64/36 20/68/36 3/25/36
f 3/25/37 20/68/37 56/69/37 21/26/37
f 20/68/38 13/67/38 42/70/38 56/69/38
f 56/69/39 42/70/39 14/71/39 23/72/39
f 21/26/40 56/69/40 23/72/40 7/29/40
f 7/29/41 23/72/41 57/73/41 24/30/41
f 23/72/42 14/71/42 43/74/42 57/73/42
f 57/73/43 43/74/43 15/75/43 26/76/43
f 24/30/44 57/73/44 26/76/44 5/31/44
f 5/31/45 26/76/45 58/77/45 27/32/45
f 26/76/46 15/75/46 44/78/46 58/77/46
f 58/77/47 44/78/47 16/65/47 40/63/47
f 27/32/48 58/77/48 40/63/48 1/33/48
f 33/79/49 66/23/49 59/1/49 9/80/49
f 12/81/50 62/21/50 66/23/50 33/79/50
f 34/82/51 65/17/51 62/21/51 12/81/51
f 11/83/52 61/15/52 65/17/52 34/82/52
f 35/84/53 64/11/53 61/15/53 11/83/53
f 10/85/54 60/9/54 64/11/54 35/84/54
f 36/86/55 63/4/55 60/9/55 10/85/55
f 9/80/56 59/1/56 63/4/56 36/86/56
